# xmcd
#
# Track frame offsets: 
#        150
#        28552
#        50419
#        73391
#        99460
#        126012
#        151131
#        169608
#        189307
#        209546
#        238119
#        259921
#        278788
#        304759
#        325625
#
# Disc length: 4727 seconds
#
# Revision: 0
# Processed by: cddbd v1.5.2PL0 Copyright (c) Steve Scherf et al.
# Submitted via: ExactAudioCopy v1.0b3
#
DISCID=d012750f
DTITLE=徳永英明 - ALL TIME BEST Presence
DYEAR=1900
DGENRE=JPop
TTITLE0=最後の言い訳
TTITLE1=恋人
TTITLE2=春の雪
TTITLE3=オリオンの炎
TTITLE4=青い契り
TTITLE5=太陽がいっぱい
TTITLE6=抱きしめてあげる
TTITLE7=レイニー ブルー
TTITLE8=さよならの水彩画
TTITLE9=僕のそばに
TTITLE10=いかないで
TTITLE11=BIRDS
TTITLE12=愛が哀しいから
TTITLE13=永遠に
TTITLE14=Revolution
EXTD=
EXTT0=
EXTT1=
EXTT2=
EXTT3=
EXTT4=
EXTT5=
EXTT6=
EXTT7=
EXTT8=
EXTT9=
EXTT10=
EXTT11=
EXTT12=
EXTT13=
EXTT14=
PLAYORDER=
